<?xml version="1.0" standalone="no"?>
<!DOCTYPE svg PUBLIC "-//W3C//DTD SVG 20010904//EN"
 "http://www.w3.org/TR/2001/REC-SVG-20010904/DTD/svg10.dtd">
<svg version="1.0" xmlns="http://www.w3.org/2000/svg"
 width="512.000000pt" height="512.000000pt" viewBox="0 0 512.000000 512.000000"
 preserveAspectRatio="xMidYMid meet">
<metadata>
Created by potrace 1.11, written by Peter Selinger 2001-2013
</metadata>
<g transform="translate(0.000000,512.000000) scale(0.100000,-0.100000)"
fill="#000000" stroke="none">
<path d="M4140 5033 c-8 -3 -28 -11 -45 -18 -16 -7 -111 -44 -210 -83 -99 -39
-268 -105 -375 -148 -121 -47 -345 -151 -590 -274 l-395 -197 -140 -27 c-77
-16 -151 -30 -165 -32 -14 -2 -36 -7 -50 -10 -14 -3 -36 -8 -50 -10 -14 -2
-36 -7 -50 -10 -14 -3 -36 -8 -50 -11 -14 -2 -59 -11 -100 -20 -41 -8 -86 -17
-100 -19 -14 -2 -36 -7 -50 -10 -46 -10 -855 -416 -872 -438 -37 -45 -12 -107
49 -122 22 -6 97 28 430 195 397 198 432 212 573 237 14 2 36 7 50 10 14 3 39
8 55 11 17 3 95 18 175 35 80 16 156 31 170 34 14 2 39 7 55 11 35 8 30 7 80
17 22 4 225 99 450 211 243 120 485 232 595 275 482 189 654 260 661 272 5 7
9 30 9 50 0 56 -54 91 -110 71z"/>
<path d="M3328 4954 c-29 -9 -50 -53 -43 -90 7 -41 56 -71 99 -60 49 12 71
103 32 135 -16 13 -65 21 -88 15z"/>
<path d="M2518 4705 c-73 -41 -23 -161 58 -141 44 11 67 44 60 84 -3 20 -11
41 -18 49 -21 20 -70 24 -100 8z"/>
<path d="M1713 4542 c-51 -40 -32 -126 31 -137 68 -13 114 51 82 113 -22 43
-75 54 -113 24z"/>
<path d="M3920 3400 l0 -1160 -160 0 -160 0 -2 972 -3 973 -237 0 -238 0 0
-972 0 -973 -160 0 -160 0 0 748 0 747 -228 -2 c-125 0 -233 -2 -239 -2 -10
-1 -13 -157 -13 -746 l0 -745 -160 0 -160 0 0 670 c0 529 -3 670 -12 671 -45
3 -436 4 -450 0 -17 -3 -18 -43 -18 -672 l0 -669 -160 0 -160 0 0 520 c0 409
-3 520 -12 521 -17 1 -428 1 -450 0 -17 -1 -18 -33 -18 -521 l0 -520 -161 0
-160 0 6 -97 c6 -101 12 -166 20 -218 3 -16 7 -48 11 -70 3 -22 19 -91 35
-152 166 -649 626 -1184 1244 -1448 204 -87 397 -137 640 -164 71 -8 395 -6
450 4 17 2 48 7 70 10 45 5 80 12 145 26 25 6 54 12 65 15 82 16 267 82 396
141 71 33 268 146 303 174 6 5 43 32 81 61 109 81 228 193 328 308 26 30 53
62 60 70 68 78 194 282 257 416 64 133 131 324 146 409 2 17 9 44 14 60 5 17
12 50 15 75 3 25 10 70 15 100 5 30 12 106 15 168 l5 112 -160 0 -160 0 0
1160 0 1160 -240 0 -240 0 0 -1160z"/>
<path d="M928 4234 c-29 -9 -50 -53 -43 -90 7 -41 56 -71 99 -60 49 12 71 103
32 135 -16 13 -65 21 -88 15z"/>
</g>
</svg>
